<svg xmlns="http://www.w3.org/2000/svg" xmlns:xlink="http://www.w3.org/1999/xlink" width="92.855" height="27.105" viewBox="0 0 92.855 27.105"><defs><style>.a{fill:#233b1a;}.b{fill:url(#a);}</style><linearGradient id="a" x2="1" gradientUnits="objectBoundingBox"><stop offset="0" stop-color="#2f8632"/><stop offset="1" stop-color="#beff7f"/></linearGradient></defs><g transform="translate(-33 -12.428)"><g transform="translate(67.588 15.669)"><path class="a" d="M-.516,0V18.613H8.543q3.882,0,3.882-3.1h0V11.895h0q0-3.1-3.634-3.1h0q3.368,0,3.368-2.588h0V3.1h0q0-3.1-3.882-3.1H-.516Zm7.5,7.5H3.367V2.588H6.983A1.144,1.144,0,0,1,8.277,3.882h0V6.2h0A1.144,1.144,0,0,1,6.983,7.5Zm.266,2.588h0a1.144,1.144,0,0,1,1.294,1.294h0v3.35h0a1.144,1.144,0,0,1-1.294,1.294H3.367V10.087Zm12.409,8.527h3.669l1.755-9.821,1.666,9.821h4.13L36.055,0H33.148L29.691,13.189,27.21,0H23.646L21.874,12.515,19.144,0h-4.4Zm17.479,0L43.589,0H46.5l6.453,18.613H48.925l-1.666-4.644H42.047L40.4,18.613Zm5.885-7.233h3.421l-1.755-5.5Z" transform="translate(0.516)"/></g><g transform="translate(33 12.428)"><path class="b" d="M33.344,39.648,28.556,34.86c-2.7,2.681-9.878-.363-14.37-4.855l.148-.148C18.1,33.619,25.1,35.918,27.371,33.674L13.446,19.75a4.626,4.626,0,0,0-7.087.66L3.652,19.7,4.9,21.719,3.3,23.157l2.274.068a8.84,8.84,0,0,0,1.236,3.98,8.121,8.121,0,0,0,6.865,12.457ZM9.91,22.8a1.072,1.072,0,1,1,1.072-1.072A1.072,1.072,0,0,1,9.91,22.8Z" transform="translate(-3.297 -18.395)"/></g><g transform="translate(67.588 38.022)"><path class="a" d="M1.25,1.335A.334.334,0,0,0,1.449,1c0-.178-.118-.39-.467-.39H.32V2.088h.7c.336,0,.5-.167.5-.389A.368.368,0,0,0,1.25,1.335ZM.487.772H1c.2,0,.282.123.282.245,0,.18-.145.256-.3.256h-.5Zm.551,1.159H.487V1.424h.533c.234,0,.336.124.336.263C1.357,1.842,1.242,1.931,1.038,1.931ZM3.078.612H2.911V2.088h.167Zm1.643.909h.513l.357.567h.2l-.389-.6a.4.4,0,0,0,.357-.419.45.45,0,0,0-.5-.462H4.554V2.088h.167Zm0-.75H5.24c.21,0,.35.115.35.3,0,.229-.2.29-.358.29H4.721ZM7.781.612H7.16V2.088h.621a.691.691,0,0,0,.678-.737A.692.692,0,0,0,7.781.612ZM7.775,1.931H7.328V.772h.447a.535.535,0,0,1,.517.58A.536.536,0,0,1,7.775,1.931ZM12.321.85l.4,1.239h.189l.46-1.476h-.177l-.379,1.24-.4-1.24h-.193l-.4,1.24L11.448.612h-.175l.459,1.476h.189Zm2.95-.237h-.209l-.627,1.476h.185L14.8,1.66h.731l.18.428H15.9Zm-.406.895.3-.721.3.721ZM18.116.612h-1.2V.773h.514V2.088H17.6V.773h.516Zm1.9,1.331a.545.545,0,0,1-.559-.592.545.545,0,0,1,.559-.594.483.483,0,0,1,.479.3h.177A.679.679,0,0,0,20,.595a.7.7,0,0,0-.713.756A.7.7,0,0,0,20,2.106a.679.679,0,0,0,.669-.459h-.177A.483.483,0,0,1,20.013,1.943ZM23.057.612v.656H22.2V.612h-.167V2.088H22.2V1.431h.858v.658h.167V.612Zm1.81,0H24.7V2.088h.167Zm2.581,0V1.854L26.538.612h-.194V2.088h.167V.842l.912,1.247h.193V.612ZM29.725.595A.715.715,0,0,0,29,1.351a.707.707,0,0,0,.723.755.618.618,0,0,0,.535-.279v.261h.154V1.3h-.694v.151h.54a.494.494,0,0,1-.522.489.552.552,0,0,1-.568-.592.556.556,0,0,1,.573-.594.512.512,0,0,1,.474.256H30.4A.71.71,0,0,0,29.725.595Zm4.344.018h-.209l-.627,1.476h.186l.18-.428h.731l.182.428H34.7Zm-.4.895.3-.721.3.721ZM36.1,1c0-.1.057-.25.392-.25.271,0,.395.118.412.266h.172C37.059.8,36.881.595,36.488.595c-.369,0-.554.167-.554.408,0,.506,1.009.323,1.009.685,0,.174-.156.261-.406.261s-.463-.088-.474-.3h-.174c.022.264.2.459.637.459.363,0,.584-.151.584-.425C37.11,1.165,36.1,1.343,36.1,1Zm2.485,0c0-.1.057-.25.392-.25.271,0,.395.118.412.266h.172C39.545.8,39.366.595,38.973.595c-.369,0-.554.167-.554.408,0,.506,1.009.323,1.009.685,0,.174-.156.261-.406.261s-.463-.088-.474-.3h-.174c.022.264.2.459.637.459.363,0,.584-.151.584-.425C39.6,1.165,38.582,1.343,38.582,1ZM41.624.595a.73.73,0,0,0-.748.756.748.748,0,1,0,1.5,0A.73.73,0,0,0,41.624.595Zm0,1.349a.562.562,0,0,1-.581-.592.581.581,0,1,1,1.162,0A.562.562,0,0,1,41.624,1.943Zm2.764,0a.545.545,0,0,1-.559-.592.545.545,0,0,1,.559-.594.483.483,0,0,1,.479.3h.177a.679.679,0,0,0-.669-.459.7.7,0,0,0-.713.756.7.7,0,0,0,.713.755.679.679,0,0,0,.669-.459h-.177A.483.483,0,0,1,44.388,1.943ZM46.575.612h-.167V2.088h.167Zm2.138,0H48.5l-.626,1.476h.185l.182-.428h.731l.18.428h.185Zm-.406.895.3-.721.3.721Zm3.25-.895h-1.2V.773h.514V2.088h.167V.773h.514Zm1.494,0h-.167V2.088h.167ZM55.182.595a.73.73,0,0,0-.75.756.749.749,0,1,0,1.5,0A.73.73,0,0,0,55.182.595Zm0,1.349a.562.562,0,0,1-.583-.592.582.582,0,1,1,1.164,0A.562.562,0,0,1,55.182,1.943ZM58.419.612V1.854L57.507.612h-.194V2.088h.167V.842l.912,1.247h.194V.612Z" transform="translate(-0.32 -0.595)"/></g></g></svg>